<svg width="169" height="52" viewBox="0 0 169 52" fill="none" xmlns="http://www.w3.org/2000/svg">
<path d="M3.55128 51.599H1.29942V40.5656H7.80921L7.71487 41.6804L3.55128 41.735V45.6627L7.5659 45.7074L7.46163 46.7253L3.55128 46.8098V51.599ZM15.9055 50.4942C16.0992 50.4942 16.3524 50.452 16.6702 50.3676V50.8641C16.556 50.9734 16.4194 51.0752 16.2605 51.1794C16.1041 51.2787 15.9353 51.3681 15.754 51.4451C15.5728 51.5171 15.3891 51.5792 15.1954 51.6214C14.9993 51.6636 14.8131 51.6859 14.6244 51.6859C14.4233 51.6859 14.2495 51.6611 14.1055 51.6065C13.964 51.5518 13.8423 51.4798 13.7356 51.388C13.6313 51.3011 13.5444 51.2018 13.4749 51.095C13.4004 50.9883 13.3383 50.879 13.2887 50.7723C13.1025 50.8914 12.9187 51.0106 12.7375 51.1273C12.5587 51.2415 12.37 51.3458 12.1714 51.4327C11.9728 51.5245 11.7643 51.594 11.5433 51.6512C11.3223 51.7058 11.079 51.7306 10.8134 51.7306C10.2076 51.7306 9.73335 51.5518 9.38328 51.1943C9.0357 50.8343 8.85694 50.2931 8.85694 49.5656C8.85694 49.1783 8.90908 48.8431 9.01584 48.5576C9.12011 48.2746 9.28894 48.0387 9.51735 47.8476C9.74825 47.6589 10.0462 47.5124 10.4136 47.418C10.7811 47.3212 11.2329 47.2666 11.7667 47.2517L13.095 47.207V46.1518C13.095 45.8688 13.0106 45.6578 12.8443 45.5311C12.6804 45.3971 12.4023 45.3325 12.0125 45.3325C11.7295 45.3325 11.4067 45.3648 11.0393 45.4269C10.6669 45.4939 10.2845 45.6007 9.88728 45.7521L9.58687 44.9824C9.85004 44.8682 10.1306 44.754 10.4236 44.6473C10.7165 44.538 11.0095 44.4412 11.3124 44.3543C11.6078 44.2699 11.9107 44.1979 12.2161 44.1507C12.524 44.0986 12.8294 44.0738 13.1397 44.0738C13.4798 44.0738 13.7827 44.1036 14.0558 44.1656C14.324 44.2252 14.5524 44.327 14.7361 44.471C14.9198 44.615 15.0589 44.8062 15.1532 45.042C15.2525 45.2754 15.3022 45.5709 15.3022 45.9209V49.3149C15.3022 50.1019 15.5033 50.4942 15.9055 50.4942ZM13.1894 50.1491C13.1819 50.1193 13.1745 50.0398 13.1695 49.9058C13.1645 49.7742 13.1546 49.6054 13.1422 49.4018C13.1323 49.1982 13.1248 48.9648 13.1174 48.7091C13.1099 48.4509 13.1049 48.1778 13.1049 47.8922C12.5612 47.8922 12.1491 47.922 11.871 47.9841C11.588 48.0412 11.4142 48.1157 11.3471 48.2051C11.3174 48.2398 11.2925 48.2994 11.2751 48.3888C11.2528 48.4732 11.2329 48.5676 11.218 48.6743C11.2056 48.786 11.1932 48.8953 11.1858 49.0095C11.1783 49.1237 11.1758 49.2305 11.1758 49.3223C11.1758 49.6525 11.223 49.9207 11.3223 50.1342C11.4167 50.3452 11.583 50.452 11.8139 50.452C12.0622 50.452 12.298 50.4222 12.5215 50.3676C12.7425 50.308 12.9659 50.2385 13.1894 50.1491ZM20.1088 51.599H17.9016V39.5179L20.1088 39.0859V51.599ZM22.676 45.2332L21.8368 44.975V44.5256L24.2352 42.9267H24.8385L24.8707 44.2277H27.1996L27.1027 45.0296C26.924 45.0594 26.7105 45.0842 26.4597 45.1116C26.209 45.1339 25.9681 45.1587 25.7273 45.1811C25.4517 45.2059 25.1687 45.2282 24.8832 45.2431V49.3918C24.8832 49.6575 24.9303 49.8785 25.0247 50.0547C25.124 50.231 25.335 50.3179 25.6553 50.3179C25.7422 50.3179 25.8539 50.3154 25.993 50.303C26.132 50.2931 26.281 50.2782 26.4349 50.2633C26.5888 50.2534 26.7403 50.2335 26.8917 50.2161C27.0407 50.1963 27.1673 50.1838 27.2666 50.1689V50.7822C27.0779 50.8964 26.8644 51.0106 26.6211 51.1198C26.3753 51.234 26.1221 51.3334 25.8539 51.4227C25.5858 51.5146 25.3102 51.5866 25.0296 51.6462C24.7491 51.7008 24.4859 51.7306 24.2352 51.7306C24.039 51.7306 23.8528 51.7132 23.6641 51.676C23.4779 51.6437 23.3116 51.5692 23.1651 51.4674C23.0186 51.3632 22.8994 51.2167 22.8125 51.0329C22.7207 50.8443 22.676 50.5985 22.676 50.2956V45.2332ZM35.2239 50.4942C35.42 50.4942 35.6732 50.452 35.9885 50.3676V50.8641C35.8743 50.9734 35.7403 51.0752 35.5814 51.1794C35.4225 51.2787 35.2536 51.3681 35.0749 51.4451C34.8936 51.5171 34.7099 51.5792 34.5138 51.6214C34.3201 51.6636 34.1314 51.6859 33.9452 51.6859C33.7416 51.6859 33.5703 51.6611 33.4263 51.6065C33.2823 51.5518 33.1607 51.4798 33.0539 51.388C32.9521 51.3011 32.8627 51.2018 32.7932 51.095C32.7187 50.9883 32.6567 50.879 32.6095 50.7723C32.4208 50.8914 32.2371 51.0106 32.0583 51.1273C31.8771 51.2415 31.6909 51.3458 31.4923 51.4327C31.2936 51.5245 31.0826 51.594 30.8616 51.6512C30.6407 51.7058 30.3999 51.7306 30.1342 51.7306C29.5284 51.7306 29.0542 51.5518 28.7041 51.1943C28.3541 50.8343 28.1778 50.2931 28.1778 49.5656C28.1778 49.1783 28.2299 48.8431 28.3367 48.5576C28.4385 48.2746 28.6073 48.0387 28.8357 47.8476C29.0666 47.6589 29.3645 47.5124 29.7345 47.418C30.1019 47.3212 30.5538 47.2666 31.0876 47.2517L32.4134 47.207V46.1518C32.4134 45.8688 32.329 45.6578 32.1651 45.5311C31.9987 45.3971 31.7232 45.3325 31.3334 45.3325C31.0503 45.3325 30.7276 45.3648 30.3576 45.4269C29.9877 45.4939 29.6054 45.6007 29.2081 45.7521L28.9052 44.9824C29.1709 44.8682 29.4514 44.754 29.7444 44.6473C30.0349 44.538 30.3303 44.4412 30.6307 44.3543C30.9287 44.2699 31.2291 44.1979 31.5345 44.1507C31.8448 44.0986 32.1502 44.0738 32.4581 44.0738C32.8007 44.0738 33.1036 44.1036 33.3742 44.1656C33.6423 44.2252 33.8708 44.327 34.0545 44.471C34.2382 44.615 34.3797 44.8062 34.4741 45.042C34.5734 45.2754 34.6205 45.5709 34.6205 45.9209V49.3149C34.6205 50.1019 34.8241 50.4942 35.2239 50.4942ZM32.5102 50.1491C32.5027 50.1193 32.4953 50.0398 32.4879 49.9058C32.4854 49.7742 32.473 49.6054 32.463 49.4018C32.4506 49.1982 32.4432 48.9648 32.4357 48.7091C32.4283 48.4509 32.4258 48.1778 32.4258 47.8922C31.8821 47.8922 31.4699 47.922 31.1894 47.9841C30.9063 48.0412 30.735 48.1157 30.668 48.2051C30.6382 48.2398 30.6134 48.2994 30.5935 48.3888C30.5712 48.4732 30.5538 48.5676 30.5389 48.6743C30.524 48.786 30.5141 48.8953 30.5066 49.0095C30.4992 49.1237 30.4942 49.2305 30.4942 49.3223C30.4942 49.6525 30.5439 49.9207 30.6407 50.1342C30.7375 50.3452 30.9039 50.452 31.1347 50.452C31.3805 50.452 31.6164 50.4222 31.8399 50.3676C32.0608 50.308 32.2867 50.2385 32.5102 50.1491ZM42.8782 51.599H40.6263V40.5656H42.8782V51.599ZM54.5149 51.6437L46.7314 43.9198H46.7041C46.7141 44.5678 46.729 45.1612 46.7439 45.7074C46.7513 45.9383 46.7588 46.1692 46.7612 46.4026C46.7662 46.636 46.7687 46.8495 46.7737 47.0481C46.7761 47.2442 46.7811 47.418 46.7836 47.5645C46.7886 47.711 46.7886 47.8178 46.7886 47.8848V51.599H45.4628V40.4986H46.4534L54.2468 48.2001H54.2567C54.2418 47.6042 54.2319 47.0481 54.2244 46.5317C54.2244 46.3107 54.2195 46.0848 54.217 45.8589C54.212 45.6329 54.2095 45.4169 54.2046 45.2133C54.2021 45.0073 54.2021 44.8211 54.2021 44.6473C54.2021 44.4735 54.2021 44.3344 54.2021 44.2277V40.5656H55.5254V51.6437H54.5149ZM60.3544 51.599V41.735L56.9555 41.6804L57.0622 40.5656H66.0051L65.8984 41.6506L62.6062 41.735V51.599H60.3544ZM74.1138 51.599H67.4675V40.5656H73.868L73.7613 41.6804L69.7193 41.735V45.3325L73.5353 45.3747L73.4286 46.3951L69.7193 46.4796V50.4296L74.2206 50.514L74.1138 51.599ZM79.0396 47.0531H78.2849V51.599H76.033V40.5954C76.2589 40.5805 76.4973 40.5656 76.7629 40.5507C77.0236 40.5383 77.2917 40.5259 77.5673 40.5135C77.8479 40.5035 78.126 40.4961 78.409 40.4886C78.692 40.4812 78.9651 40.4762 79.2233 40.4762C80.5566 40.4762 81.5695 40.7195 82.2598 41.2086C82.9475 41.6978 83.2926 42.455 83.2926 43.4878C83.2926 43.9496 83.2355 44.3493 83.1163 44.6944C82.9947 45.042 82.8407 45.34 82.6471 45.5932C82.4559 45.8514 82.23 46.0625 81.9817 46.2362C81.726 46.4051 81.4653 46.5516 81.1946 46.6782C81.5249 47.2393 81.8377 47.7731 82.1356 48.2746C82.4335 48.7736 82.7265 49.2106 83.022 49.588C83.3149 49.9629 83.6178 50.2608 83.9257 50.4768C84.236 50.6928 84.5662 50.8045 84.9163 50.8045H84.9933V51.5146C84.812 51.5692 84.6109 51.6164 84.3775 51.6536C84.1516 51.6909 83.8884 51.7083 83.6029 51.7083C83.3298 51.7083 83.0815 51.6934 82.8556 51.6636C82.6272 51.6387 82.4186 51.5792 82.22 51.4997C82.0214 51.4178 81.8302 51.2961 81.6391 51.1397C81.4479 50.9808 81.2518 50.7747 81.0506 50.514C80.852 50.2558 80.6335 49.9405 80.4076 49.5656C80.1742 49.1858 79.926 48.7364 79.6529 48.215L79.0396 47.0531ZM78.6697 45.9706C78.9875 45.9706 79.2929 45.9358 79.5833 45.8589C79.8738 45.7844 80.1022 45.6876 80.2661 45.5733C80.3505 45.5162 80.4399 45.4467 80.5243 45.3648C80.6087 45.2804 80.6857 45.1662 80.7552 45.0197C80.8222 44.8707 80.8769 44.687 80.9191 44.4636C80.9588 44.2426 80.9762 43.9645 80.9762 43.6244C80.9762 43.2544 80.9315 42.9367 80.8396 42.6809C80.7527 42.4227 80.6186 42.2117 80.4424 42.0578C80.2661 41.9063 80.0501 41.7946 79.7919 41.7275C79.5337 41.658 79.2333 41.6233 78.8882 41.6233C78.8062 41.6233 78.7119 41.6282 78.5977 41.6357C78.4835 41.6431 78.3767 41.6531 78.2849 41.668V45.9706H78.6697ZM88.3798 51.599H86.1304V40.5656H88.3798V51.599ZM97.6107 51.599H90.9668V40.5656H97.3649L97.2581 41.6804L93.2162 41.735V45.3325L97.0347 45.3747L96.9279 46.3951L93.2162 46.4796V50.4296L97.7174 50.514L97.6107 51.599ZM95.1552 36.0644L96.2849 37.1642L93.462 39.5055L92.7519 38.8252L95.1552 36.0644ZM102.536 47.0531H101.782V51.599H99.5323V40.5954C99.7558 40.5805 99.9941 40.5656 100.26 40.5507C100.52 40.5383 100.789 40.5259 101.064 40.5135C101.345 40.5035 101.623 40.4961 101.906 40.4886C102.191 40.4812 102.462 40.4762 102.72 40.4762C104.056 40.4762 105.066 40.7195 105.757 41.2086C106.447 41.6978 106.792 42.455 106.792 43.4878C106.792 43.9496 106.732 44.3493 106.616 44.6944C106.494 45.042 106.34 45.34 106.144 45.5932C105.953 45.8514 105.729 46.0625 105.479 46.2362C105.225 46.4051 104.965 46.5516 104.691 46.6782C105.022 47.2393 105.335 47.7731 105.632 48.2746C105.93 48.7736 106.226 49.2106 106.519 49.588C106.814 49.9629 107.115 50.2608 107.425 50.4768C107.733 50.6928 108.063 50.8045 108.413 50.8045H108.49V51.5146C108.311 51.5692 108.108 51.6164 107.877 51.6536C107.648 51.6909 107.388 51.7083 107.1 51.7083C106.829 51.7083 106.578 51.6934 106.352 51.6636C106.127 51.6387 105.915 51.5792 105.717 51.4997C105.518 51.4178 105.327 51.2961 105.136 51.1397C104.945 50.9808 104.751 50.7747 104.547 50.514C104.349 50.2558 104.133 49.9405 103.904 49.5656C103.674 49.1858 103.423 48.7364 103.15 48.215L102.536 47.0531ZM102.169 45.9706C102.484 45.9706 102.79 45.9358 103.08 45.8589C103.371 45.7844 103.599 45.6876 103.765 45.5733C103.85 45.5162 103.937 45.4467 104.021 45.3648C104.106 45.2804 104.183 45.1662 104.255 45.0197C104.319 44.8707 104.376 44.687 104.416 44.4636C104.456 44.2426 104.475 43.9645 104.475 43.6244C104.475 43.2544 104.431 42.9367 104.339 42.6809C104.25 42.4227 104.118 42.2117 103.942 42.0578C103.765 41.9063 103.547 41.7946 103.291 41.7275C103.033 41.658 102.73 41.6233 102.385 41.6233C102.303 41.6233 102.209 41.6282 102.095 41.6357C101.98 41.6431 101.874 41.6531 101.782 41.668V45.9706H102.169ZM113.538 51.599H111.286V47.3659L107.688 40.5656H110.253L112.967 45.9756L115.787 40.5656H117.155L113.538 47.3659V51.599Z" fill="#230701"/>
<path d="M22.7818 17.6142C22.7818 19.233 22.2157 20.8914 21.1134 22.6989C19.6337 25.0327 17.5084 26.86 14.7178 28.1709C12.1357 29.3527 9.3749 29.9486 6.39559 29.9486H2.06566L6.25656 16.492H10.9341L7.3887 27.8531C9.13656 27.8531 10.8745 27.3168 12.5926 26.2641C14.3206 25.1916 15.552 23.9006 16.3266 22.3414C17.0516 20.9808 17.4091 19.8189 17.4091 18.9052C17.4091 17.4056 16.9722 16.3331 16.1479 15.6578C15.3931 15.0917 14.2312 14.7938 12.6819 14.7938H0L2.016 11.4967H14.7178C16.9225 11.4967 18.7498 11.9535 20.1997 12.887C21.9178 13.9695 22.7818 15.5485 22.7818 17.6142Z" fill="#230701"/>
<path d="M40.1887 27.8527C39.7617 29.253 38.709 29.9482 36.9611 29.9482H31.9956C30.5656 29.9482 29.8704 29.4913 29.8704 28.5777C28.9269 29.68 27.7451 30.2163 26.3548 30.2163C25.3319 30.2163 24.4977 29.8985 23.882 29.2729C23.2364 28.6273 22.9187 27.8229 22.9187 26.81C22.9187 24.9826 23.6138 23.5327 24.9545 22.48C26.1959 21.5167 27.7451 21.0301 29.5724 21.0301H36.8817L34.7366 27.8527H40.1887ZM31.5388 23.1255H28.8276L27.914 26.1843C27.8544 26.373 27.8345 26.5319 27.8345 26.7007C27.8345 27.4753 28.5793 27.8527 30.0591 27.8527L31.5388 23.1255Z" fill="#230701"/>
<path d="M59.8546 21.0301C59.6361 21.8047 59.1297 22.3708 58.3451 22.7184C57.779 22.9865 57.1931 23.1255 56.5774 23.1255H51.0656L45.534 29.9482H40.2706L39.7343 21.0301H44.4913L44.5409 27.4753L49.4568 21.0301H59.8546Z" fill="#230701"/>
<path d="M62.5621 15.6576C62.5621 16.5117 62.2146 17.2664 61.5492 17.8822C60.8739 18.5078 60.0694 18.7958 59.0962 18.7958C58.1329 18.7958 57.2987 18.5078 56.6333 17.8822C55.958 17.2664 55.6104 16.5117 55.6104 15.6576C55.6104 14.7737 55.958 14.0488 56.6333 13.4231C57.2987 12.8074 58.1329 12.5095 59.0962 12.5095C60.0694 12.5095 60.8739 12.8074 61.5492 13.4231C62.2146 14.0488 62.5621 14.7737 62.5621 15.6576ZM63.8532 27.8529C63.6446 28.6275 63.158 29.1936 62.433 29.5412C61.9265 29.8093 61.3605 29.9484 60.7646 29.9484H55.5806C54.3492 29.9484 53.7037 29.4121 53.7037 28.3594C53.7037 28.0714 53.7831 27.7437 53.8923 27.4259L55.9083 21.0303H60.6057L58.4805 27.8529H63.8532Z" fill="#230701"/>
<path d="M81.3945 27.8527C80.9675 29.253 79.895 29.9481 78.1769 29.9481H73.1816C71.7515 29.9481 71.0265 29.4913 71.0563 28.5776C70.093 29.7098 68.802 30.2659 67.1832 30.2659C66.1405 30.2659 65.2765 29.9779 64.6111 29.3821C63.9358 28.7663 63.5882 27.9321 63.5882 26.8894C63.5882 24.9826 64.343 23.5029 65.8425 22.4303C67.1634 21.4869 68.7722 21.03 70.7087 21.03H73.3703L75.5452 14.0982H80.2425L75.9424 27.8527H81.3945ZM72.7247 23.1255H69.5766L68.5835 25.9459C68.5041 26.2141 68.4544 26.4524 68.4544 26.6411C68.4544 27.237 68.8219 27.6143 69.5766 27.7732C69.8447 27.8229 70.381 27.8527 71.245 27.8527L72.7247 23.1255Z" fill="#230701"/>
<path d="M129.904 27.8319C129.479 29.252 128.397 29.9571 126.652 29.9571H121.622C120.189 29.9571 119.469 29.4953 119.469 28.5767C118.508 29.6716 117.321 30.2253 115.911 30.2253C114.878 30.2253 114.034 29.9025 113.391 29.2694C112.743 28.6313 112.42 27.7971 112.42 26.7718C112.42 24.9246 113.128 23.4597 114.546 22.3897C115.829 21.4164 117.416 20.9298 119.31 20.9298H126.892L124.395 27.8319H129.904ZM121.343 23.0575H118.409L117.478 26.1461C117.423 26.3422 117.396 26.5185 117.396 26.6774C117.396 27.4471 118.151 27.8319 119.653 27.8319L121.343 23.0575Z" fill="#230701"/>
<path d="M115.516 7.19236L112.922 14.7623H118.24C118.084 16.4978 117.033 17.3841 115.084 17.4064L111.981 17.4338L109.453 24.5816C107.666 29.639 106.191 29.2393 101.799 29.2393L109.461 7.17746L115.516 7.19236Z" fill="#230701"/>
<path d="M169 27.8319C168.576 29.252 167.493 29.9571 165.748 29.9571H160.718C159.285 29.9571 158.565 29.4953 158.565 28.5767C157.604 29.6716 156.415 30.2253 155.007 30.2253C153.974 30.2253 153.13 29.9025 152.487 29.2694C151.839 28.6313 151.516 27.7971 151.516 26.7718C151.516 24.9246 152.224 23.4597 153.642 22.3897C154.925 21.4164 156.512 20.9298 158.406 20.9298H165.986L163.491 27.8319H169ZM160.439 23.0575H157.505L156.574 26.1461C156.519 26.3422 156.492 26.5185 156.492 26.6774C156.492 27.4471 157.244 27.8319 158.749 27.8319L160.439 23.0575Z" fill="#230701"/>
<path d="M151.852 27.8318C151.434 29.2519 150.33 29.9571 148.53 29.9571H141.759C140.451 29.9571 139.793 29.4953 139.793 28.5766C139.793 28.3482 139.842 28.0999 139.942 27.8318L141.628 23.0575H139.448L140.287 20.9297C141.836 20.5325 142.983 20.0235 143.735 19.4028C144.587 18.7052 145.493 17.4365 146.459 15.6067H149.046L147.177 20.9297H150.603C150.054 22.3449 148.939 23.0575 147.258 23.0575H146.377L144.719 27.8318H151.852Z" fill="#230701"/>
<path d="M140.155 27.8321C139.934 28.6117 139.423 29.1877 138.628 29.5601C138.072 29.8258 137.474 29.9573 136.833 29.9573H131.721C130.413 29.9573 129.76 29.5104 129.76 28.6166C129.76 28.3858 129.805 28.1275 129.904 27.8321L134.832 13.9485H139.53L134.577 27.8321H140.155Z" fill="#230701"/>
<path d="M126.565 0L123.489 5.03256H99.0507C97.3327 5.03256 95.7859 5.52911 94.4105 6.53463C92.9233 7.62207 92.1735 8.99504 92.1735 10.6461C92.1735 11.7931 92.5633 12.4486 93.3329 12.6124C93.5862 11.371 94.2441 10.3804 95.2918 9.63063C96.2849 8.92056 97.4121 8.55311 98.6883 8.55311C100.079 8.55311 101.273 8.97766 102.291 9.82925C103.378 10.7379 103.927 11.9098 103.927 13.3473C103.927 14.9437 103.271 16.1926 101.968 17.0864C100.851 17.856 99.4579 18.2458 97.7945 18.2458C95.2223 18.2458 93.0772 17.6499 91.3765 16.4458C89.4822 15.1051 88.5387 13.2455 88.5387 10.8919C88.5387 7.3589 89.9365 4.60055 92.7321 2.61931C95.2 0.871449 98.2662 0 101.928 0H126.565Z" fill="#CC6117"/>
</svg>
